HIERARCHY
ROOT Hips
{
	OFFSET 0.000000 0.000000 0.000000
	CHANNELS 6 Xposition Yposition Zposition Zrotation Yrotation Xrotation 
	JOINT LHipJoint
	{
		OFFSET 0.000000 0.000000 0.000000
		CHANNELS 3 Zrotation Yrotation Xrotation
		JOINT LeftUpLeg
		{
			OFFSET 1.363060 -1.794630 0.839290
			CHANNELS 3 Zrotation Yrotation Xrotation
			JOINT LeftLeg
			{
				OFFSET 2.448110 -6.726130 0.000000
				CHANNELS 3 Zrotation Yrotation Xrotation
				JOINT LeftFoot
				{
					OFFSET 2.562200 -7.039590 0.000000
					CHANNELS 3 Zrotation Yrotation Xrotation
					JOINT LeftToeBase
					{
						OFFSET 0.157640 -0.433110 2.322550
						CHANNELS 3 Zrotation Yrotation Xrotation
						End Site
						{
							OFFSET 0.000000 0.000000 0.000000
						}
					}
				}
			}
		}
	}
	JOINT RHipJoint
	{
		OFFSET 0.000000 0.000000 0.000000
		CHANNELS 3 Zrotation Yrotation Xrotation
		JOINT RightUpLeg
		{
			OFFSET -1.305520 -1.794630 0.839290
			CHANNELS 3 Zrotation Yrotation Xrotation
			JOINT RightLeg
			{
				OFFSET -2.542530 -6.985550 0.000000
				CHANNELS 3 Zrotation Yrotation Xrotation
				JOINT RightFoot
				{
					OFFSET -2.568260 -7.056230 0.000000
					CHANNELS 3 Zrotation Yrotation Xrotation
					JOINT RightToeBase
					{
						OFFSET -0.164730 -0.452590 2.363150
						CHANNELS 3 Zrotation Yrotation Xrotation
						End Site
						{
							OFFSET 0.000000 0.000000 0.000000
						}
					}
				}
			}
		}
	}
	JOINT LowerBack
	{
		OFFSET 0.000000 0.000000 0.000000
		CHANNELS 3 Zrotation Yrotation Xrotation
		JOINT Spine
		{
			OFFSET 0.028270 2.035590 -0.193380
			CHANNELS 3 Zrotation Yrotation Xrotation
			JOINT Spine1
			{
				OFFSET 0.056720 2.048850 -0.042750
				CHANNELS 3 Zrotation Yrotation Xrotation
				JOINT Neck
				{
					OFFSET 0.000000 0.000000 0.000000
					CHANNELS 3 Zrotation Yrotation Xrotation
					JOINT Neck1
					{
						OFFSET -0.054170 1.746240 0.172020
						CHANNELS 3 Zrotation Yrotation Xrotation
						JOINT Head
						{
							OFFSET 0.104070 1.761360 -0.123970
							CHANNELS 3 Zrotation Yrotation Xrotation
							End Site
							{
								OFFSET 0.000000 0.000000 0.000000
							}
						}
					}
				}
				JOINT LeftShoulder
				{
					OFFSET 0.000000 0.000000 0.000000
					CHANNELS 3 Zrotation Yrotation Xrotation
					JOINT LeftArm
					{
						OFFSET 3.362410 1.200890 -0.311210
						CHANNELS 3 Zrotation Yrotation Xrotation
						JOINT LeftForeArm
						{
							OFFSET 4.983000 -0.000000 -0.000000
							CHANNELS 3 Zrotation Yrotation Xrotation
							JOINT LeftHand
							{
								OFFSET 3.483560 -0.000000 -0.000000
								CHANNELS 3 Zrotation Yrotation Xrotation
								JOINT LeftFingerBase
								{
									OFFSET 0.000000 0.000000 0.000000
									CHANNELS 3 Zrotation Yrotation Xrotation
									JOINT LeftHandIndex1
									{
										OFFSET 0.715260 -0.000000 -0.000000
										CHANNELS 3 Zrotation Yrotation Xrotation
										End Site
										{
											OFFSET 0.000000 0.000000 0.000000
										}
									}
								}
								JOINT LThumb
								{
									OFFSET 0.000000 0.000000 0.000000
									CHANNELS 3 Zrotation Yrotation Xrotation
									End Site
									{
										OFFSET 0.000000 0.000000 0.000000
									}
								}
							}
						}
					}
				}
				JOINT RightShoulder
				{
					OFFSET 0.000000 0.000000 0.000000
					CHANNELS 3 Zrotation Yrotation Xrotation
					JOINT RightArm
					{
						OFFSET -3.136600 1.374050 -0.404650
						CHANNELS 3 Zrotation Yrotation Xrotation
						JOINT RightForeArm
						{
							OFFSET -5.241900 -0.000000 -0.000000
							CHANNELS 3 Zrotation Yrotation Xrotation
							JOINT RightHand
							{
								OFFSET -3.444170 -0.000000 -0.000000
								CHANNELS 3 Zrotation Yrotation Xrotation
								JOINT RightFingerBase
								{
									OFFSET 0.000000 0.000000 0.000000
									CHANNELS 3 Zrotation Yrotation Xrotation
									JOINT RightHandIndex1
									{
										OFFSET -0.622530 -0.000000 -0.000000
										CHANNELS 3 Zrotation Yrotation Xrotation
										End Site
										{
											OFFSET 0.000000 0.000000 0.000000
										}
									}
								}
								JOINT RThumb
								{
									OFFSET 0.000000 0.000000 0.000000
									CHANNELS 3 Zrotation Yrotation Xrotation
									End Site
									{
										OFFSET 0.000000 0.000000 0.000000
									}
								}
							}
						}
					}
				}
			}
		}
	}
}
MOTION
Frames: 7
Frame Time: 0.016667
-0.401244 18.535670 -0.401244 5.481300 -5.946880 4.813430 3.673988 -3.799159 -8.450534 -13.358171 -28.028592 -0.194138 83.944455 -58.612068 -40.441416 -78.016432 -83.937514 57.791389 0.000000 0.000000 0.000000 18.058812 -3.537349 -4.774736 0.312991 18.913282 -16.698965 16.369740 22.314658 -56.367349 82.100222 -74.311546 -64.294425 0.000000 0.000000 0.000000 -15.781115 3.946327 15.663750 10.446772 1.778669 -1.854006 1.563000 2.410192 -10.702368 9.736844 -0.354506 -15.049951 -0.956698 -0.086722 -4.721172 0.000000 0.000000 0.000000 1.715162 13.184335 10.559261 -72.270016 -0.907896 19.838739 -16.164860 -78.340082 2.491672 -16.284792 18.653052 1.217908 -16.428091 18.472526 0.000000 0.000000 0.000000 0.000000 0.000000 0.000000 0.000000 -9.616237 -11.386616 10.829264 67.695905 4.194505 16.382619 26.843543 64.831210 0.628695 0.900572 15.241159 0.311631 0.898814 15.250138 0.000000 0.000000 0.000000 0.000000 0.000000 0.000000 0.000000 
-0.407252 18.554436 -0.259479 5.747938 -6.876395 4.395387 4.299906 -3.915665 -8.362816 -15.019957 -27.300000 1.380913 84.378494 -57.781257 -39.841016 -77.533928 -84.695990 57.961655 0.000000 0.000000 0.000000 17.077108 -3.928614 -5.645231 1.634129 21.291785 -17.602651 10.961113 25.560947 -51.699600 90.669966 -72.712120 -63.486015 0.000000 0.000000 0.000000 -15.311083 3.789047 15.800071 8.816677 2.232717 -3.406650 3.362271 2.554621 -9.005317 4.131585 -1.006104 -8.234434 -0.994758 -0.185660 1.760725 0.000000 0.000000 0.000000 -1.210061 13.217802 10.898363 -73.707498 -8.235932 1.798946 -160.251872 -86.389110 174.447601 21.813262 -15.822777 -3.252758 23.359419 -14.883880 -0.000000 0.000000 0.000000 0.000000 0.000000 0.000000 0.000000 0.913410 -10.545157 8.962966 57.392052 -0.955777 19.970597 175.875485 86.634038 179.728700 0.727322 -12.310384 -0.135781 0.734845 -12.311578 0.000000 0.000000 0.000000 0.000000 0.000000 0.000000 0.000000 
-0.410923 18.575020 -0.118392 5.910129 -9.433146 3.687168 4.978325 -2.761185 -7.540614 -16.540194 -26.277909 2.425721 84.961633 -56.987039 -39.316230 -77.160820 -85.632730 57.940960 0.000000 0.000000 0.000000 15.299285 -7.199526 -8.557732 7.911344 26.658028 -17.483485 3.827564 30.510283 -41.402154 110.265753 -65.853618 -63.125228 0.000000 0.000000 0.000000 -14.525982 2.942247 16.957251 6.543047 2.196552 -5.971986 6.263309 2.254447 -7.660233 -3.863874 -0.888065 0.368281 -1.598270 -0.732483 11.762646 0.000000 0.000000 0.000000 3.746834 12.779007 -2.673261 -86.331826 -6.197761 -15.112753 -50.418528 -88.947660 -65.432897 69.456722 10.315343 -14.532480 11.744874 -40.533792 -0.000000 0.000000 0.000000 0.000000 0.000000 0.000000 0.000000 6.779413 -5.894233 8.888050 51.415845 -1.875421 8.023347 160.413961 67.157920 177.746403 16.561033 -37.812397 -1.414572 18.269393 -37.151882 -0.000000 0.000000 0.000000 0.000000 0.000000 0.000000 0.000000 
-0.305399 18.673753 0.129678 3.581515 -11.885121 5.178051 -1.267113 3.209609 -0.806427 -4.848119 -28.735681 -7.246159 87.239725 -58.187747 -43.323151 -78.000642 -85.722176 56.576792 0.000000 0.000000 0.000000 14.660738 -14.940860 -10.762843 19.483719 32.095695 -17.006698 7.918924 30.486658 -28.186059 100.849912 -63.536111 -47.796971 0.000000 0.000000 0.000000 -10.488498 1.729766 14.857482 2.826034 -0.059860 -3.978668 4.839270 2.497603 -12.654319 -9.032295 1.115941 11.261677 0.580290 -1.386627 16.288804 0.000000 0.000000 0.000000 1.986272 12.001988 -20.177183 -57.709789 -6.453912 -9.966589 -102.560498 -81.369872 -109.473471 118.645115 39.719905 119.401868 -86.919956 -36.211283 -180.000000 0.000000 0.000000 0.000000 0.000000 0.000000 0.000000 11.724885 -3.638096 10.168832 49.227516 -1.590915 6.802117 158.613392 62.081655 175.818197 24.975318 -45.589552 -3.179036 29.504480 -43.208238 0.000000 0.000000 0.000000 0.000000 0.000000 0.000000 0.000000 
-0.197903 18.773929 0.377395 3.262933 -14.924396 6.927389 -7.127929 7.293482 4.375081 5.393595 -28.825599 -15.717209 86.400191 -57.313856 -44.273119 -76.563716 -88.935656 55.032183 0.000000 0.000000 0.000000 14.085689 -23.223950 -13.083685 33.240942 35.505398 -14.774762 12.233086 27.348506 -11.585446 95.700080 -56.064589 -37.669753 0.000000 0.000000 0.000000 -4.690342 1.107789 15.116741 2.938579 1.554818 0.690802 2.939553 3.198702 -11.490648 -23.328184 6.631622 13.046491 -0.659217 -0.803838 17.922000 0.000000 0.000000 0.000000 15.425228 18.205465 -17.835465 -86.154441 -2.192821 -19.707288 -67.236251 -72.697587 -135.052941 140.175168 -9.877533 -25.444610 -154.684795 -9.514322 179.999999 0.000000 0.000000 0.000000 0.000000 0.000000 0.000000 11.173387 -9.910210 2.344848 49.982559 5.315934 8.741806 155.999515 55.047757 174.602539 32.027598 -48.081902 -4.632718 38.750273 -43.688113 0.000000 0.000000 0.000000 0.000000 0.000000 0.000000 0.000000 
-0.092970 18.871478 0.619927 1.801479 -16.748098 7.712584 -11.041780 8.965114 6.730812 10.288196 -27.584278 -20.097075 85.747739 -56.494666 -43.728418 106.143930 -87.102238 -125.122833 0.000000 0.000000 0.000000 18.350899 -30.465274 -14.952927 48.713862 38.968089 -13.023975 8.144147 24.485652 13.927592 96.830343 -39.338470 -32.076621 0.000000 0.000000 0.000000 -7.694344 3.290462 19.556259 -0.870480 3.052103 -1.970947 8.346436 7.816435 -25.140216 -12.834028 9.923983 10.975525 1.750243 1.457416 7.730535 0.000000 0.000000 0.000000 9.648200 16.917736 -26.742422 -52.375981 -17.585410 -50.683317 -55.598115 -22.465590 107.557822 -124.388175 52.951797 -102.541938 -133.474999 -60.180110 -0.000007 0.000000 0.000000 0.000000 0.000000 0.000000 0.000000 11.403458 -15.067479 6.554965 43.696480 -1.023580 3.843945 156.185589 50.979364 173.749409 38.772081 -47.507421 -5.749352 46.715107 -41.327499 0.000000 0.000000 0.000000 0.000000 0.000000 0.000000 0.000000 
0.013229 18.969146 0.861298 4.613608 -16.232413 7.536030 -17.433943 8.873417 8.983312 14.848789 -27.630413 -22.585234 87.366372 -56.218714 -44.459471 106.752159 -87.302120 -125.253812 0.000000 0.000000 0.000000 25.371355 -27.549822 -19.470543 45.566660 47.303788 -17.637035 5.177684 23.992495 39.448804 83.501521 -25.104947 -28.759184 0.000000 0.000000 0.000000 -6.267343 -1.220220 22.329107 -5.106872 0.095749 -2.741640 -0.608141 0.592108 -45.022857 -44.230465 -28.029264 9.249732 -4.944181 -19.682923 -2.848210 0.000000 0.000000 0.000000 20.607958 35.937433 -61.586588 -70.002496 -6.567334 -1.456903 -38.444323 -77.646116 126.842758 57.614480 -83.057991 15.765833 53.661965 22.205979 0.000000 0.000000 0.000000 0.000000 0.000000 0.000000 0.000000 23.865458 -15.334989 15.031667 43.562292 -5.321673 3.200689 150.253625 44.586416 173.194044 44.273116 -45.323374 -6.760701 52.791015 -37.744943 -0.000000 0.000000 0.000000 0.000000 0.000000 0.000000 0.000000 
